<svg width="92" height="179" viewBox="0 0 92 179" fill="none" xmlns="http://www.w3.org/2000/svg">
<path d="M4.9 175.832L4.9 166.552L43.412 161.1V160.404L4.9 154.952L4.9 145.672H45.5V150.196H6.988V150.892L45.5 156.344L45.5 165.16L6.988 170.612V171.308H45.5V175.832H4.9ZM35.408 116.538V133.938L45.5 136.896V142.116L4.9 129.82L4.9 120.656L45.5 108.36V113.58L35.408 116.538ZM6.988 125.586L30.884 132.604L30.884 117.872L6.988 124.89V125.586ZM4.9 103.993L4.9 75.4567H9.424L9.424 87.2887L45.5 87.2887V92.1607L9.424 92.1607L9.424 103.993H4.9ZM41.788 53.979C41.788 52.3163 41.5173 50.905 40.976 49.745C40.396 48.5463 39.642 47.5796 38.714 46.845C37.7473 46.0717 36.6647 45.511 35.466 45.163C34.2287 44.7763 32.9333 44.583 31.58 44.583H30.884L30.884 39.711H31.58C33.6293 39.711 35.5627 40.0203 37.38 40.639C39.1587 41.2576 40.7247 42.1663 42.078 43.365C43.3927 44.5636 44.4367 46.0523 45.21 47.831C45.9447 49.6097 46.312 51.659 46.312 53.979C46.312 58.4643 44.9007 61.9637 42.078 64.477C39.2553 66.9903 35.1373 68.247 29.724 68.247H20.676C15.4173 68.247 11.338 66.9903 8.438 64.477C5.538 61.9637 4.088 58.4643 4.088 53.979C4.088 51.659 4.47466 49.6097 5.248 47.831C5.98267 46.0523 7.02667 44.5636 8.38 43.365C9.69467 42.1663 11.2607 41.2576 13.078 40.639C14.8567 40.0203 16.7707 39.711 18.82 39.711H19.516L19.516 44.583H18.82C17.5053 44.6216 16.2293 44.8343 14.992 45.221C13.7547 45.569 12.672 46.1296 11.744 46.903C10.7773 47.6377 10.0233 48.585 9.482 49.745C8.902 50.905 8.612 52.3163 8.612 53.979C8.612 57.111 9.75266 59.4697 12.034 61.055C14.3153 62.6017 17.312 63.375 21.024 63.375H29.376C33.3587 63.375 36.4327 62.6017 38.598 61.055C40.7247 59.4697 41.788 57.111 41.788 53.979ZM4.9 32.2113V27.3393H22.88L22.88 10.0553H4.9L4.9 5.18331H45.5V10.0553H27.404L27.404 27.3393H45.5L45.5 32.2113H4.9Z" fill="#A8B4F7"/>
<path d="M49.9 175.02L49.9 146.484H54.424L54.424 158.316H90.5V163.188H54.424V175.02H49.9ZM49.9 138.114L49.9 112.362H54.424L54.424 122.802H85.976L85.976 112.362L90.5 112.362L90.5 138.114H85.976V127.674H54.424V138.114H49.9ZM49.9 102.427V97.5547H85.976V76.3267L90.5 76.3267V102.427L49.9 102.427ZM49.9 66.507V41.915H54.424V61.635H67.88V42.263H72.404V61.635H85.976V41.567H90.5V66.507L49.9 66.507ZM61.616 9.12731C60.3013 9.12731 59.1413 9.39798 58.136 9.93931C57.1307 10.442 56.2993 11.138 55.642 12.0273C54.9847 12.9166 54.482 13.9413 54.134 15.1013C53.786 16.2613 53.612 17.4793 53.612 18.7553C53.612 19.8766 53.7667 20.94 54.076 21.9453C54.3467 22.9506 54.7527 23.8593 55.294 24.6713C55.8353 25.4446 56.512 26.0633 57.324 26.5273C58.0973 26.9913 59.006 27.2233 60.05 27.2233H60.398C61.5193 27.2233 62.486 26.9913 63.298 26.5273C64.0713 26.0633 64.748 25.3866 65.328 24.4973C65.8693 23.5693 66.3333 22.4286 66.72 21.0753C67.068 19.722 67.3773 18.1366 67.648 16.3193C68.3053 12.066 69.562 8.93398 71.418 6.92331C73.2353 4.91264 75.6907 3.90731 78.784 3.90731H79.48C81.22 3.90731 82.8247 4.21664 84.294 4.83531C85.7247 5.41531 86.962 6.30464 88.006 7.50331C89.05 8.66331 89.862 10.1133 90.442 11.8533C91.022 13.5933 91.312 15.604 91.312 17.8853C91.312 20.476 90.9447 22.7766 90.21 24.7873C89.4367 26.7593 88.3927 28.422 87.078 29.7753C85.7247 31.09 84.1587 32.0953 82.38 32.7913C80.5627 33.4873 78.5907 33.8353 76.464 33.8353H74.724V28.9633H76.116C79.6733 28.9633 82.3413 27.9966 84.12 26.0633C85.8987 24.0913 86.788 21.3653 86.788 17.8853C86.788 14.8693 86.1307 12.6073 84.816 11.0993C83.4627 9.55264 81.684 8.77931 79.48 8.77931H79.132C77.0053 8.77931 75.3813 9.57198 74.26 11.1573C73.1387 12.704 72.3267 15.2366 71.824 18.7553C71.5533 20.8046 71.1473 22.6606 70.606 24.3233C70.026 25.9473 69.2913 27.3393 68.402 28.4993C67.474 29.6593 66.372 30.5486 65.096 31.1673C63.82 31.786 62.312 32.0953 60.572 32.0953H59.876C58.2907 32.0953 56.8407 31.7666 55.526 31.1093C54.2113 30.452 53.0707 29.5433 52.104 28.3833C51.1373 27.1846 50.4027 25.7733 49.9 24.1493C49.3587 22.4866 49.088 20.6693 49.088 18.6973C49.088 16.416 49.4167 14.386 50.074 12.6073C50.7313 10.79 51.6207 9.26264 52.742 8.02531C53.8247 6.78798 55.12 5.85998 56.628 5.24131C58.0973 4.58398 59.644 4.25531 61.268 4.25531H63.704V9.12731H61.616Z" fill="#A8B4F7"/>
</svg>
